# xmcd CD database file
#
# Track frame offsets:
#	183
#	25983
#	57033
#	84850
#	107558
#	145093
#	187953
#	215363
#	251545
#	278640
#	295368
#	311855
#
# Disc length: 4440 seconds
#
# Revision: 5
# Processed by: cddbd v1.5.2PL0 Copyright (c) Steve Scherf et al.
# Submitted via: CDex 1.51
#
DISCID=a511560c
DTITLE=Eric Clapton - Blues Night - London 1991 [CD 1)
DYEAR=1991
DGENRE=Blues
TTITLE0=Watch Yourself
TTITLE1=Hoodoo Man
TTITLE2=Hideaway
TTITLE3=Standin' Round Cryin'
TTITLE4=All Your Love
TTITLE5=Have You Ever Loved A Woman
TTITLE6=That`s Allright
TTITLE7=Key To The Highway
TTITLE8=Wee Wee Baby
TTITLE9=Tanqueray
TTITLE10=Johnnie`s Boogie
TTITLE11=Travellin`South
EXTD=YEAR: 1991
EXTT0=
EXTT1=
EXTT2=
EXTT3=
EXTT4=
EXTT5=
EXTT6=
EXTT7=
EXTT8=Lead vocal: Jimmy Vaughan
EXTT9=Voc and Piano: Johnny Johnson
EXTT10=Voc and Piano: Johnny Johnson
EXTT11=Voc and Guit: Albert Collins
PLAYORDER=
